<?xml version="1.0" encoding="utf-8"?>
<!-- Generated by IcoMoon.io -->
<!DOCTYPE svg PUBLIC "-//W3C//DTD SVG 1.1//EN" "http://www.w3.org/Graphics/SVG/1.1/DTD/svg11.dtd">
<svg version="1.1" xmlns="http://www.w3.org/2000/svg" xmlns:xlink="http://www.w3.org/1999/xlink" width="32" height="32" viewBox="0 0 32 32">
<path d="M0 15.429v-3.429q0-1.179 0.839-2.018t2.018-0.839h8.571q7.768 0 16-6.857 0.929 0 1.607 0.679t0.679 1.607v6.857q0.946 0 1.616 0.67t0.67 1.616-0.67 1.616-1.616 0.67v6.857q0 0.929-0.679 1.607t-1.607 0.679q-7.446-6.196-14.5-6.786-1.036 0.339-1.625 1.179t-0.554 1.795 0.714 1.652q-0.357 0.589-0.411 1.17t0.107 1.036 0.598 0.982 0.857 0.893 1.098 0.902q-0.518 1.036-1.991 1.482t-3.009 0.205-2.357-0.991q-0.125-0.411-0.527-1.563t-0.571-1.688-0.411-1.589-0.268-1.804 0.063-1.759 0.393-1.973h-2.179q-1.179 0-2.018-0.839t-0.839-2.018zM13.714 16.125q6.732 0.75 13.714 6.089v-17.036q-7.036 5.393-13.714 6.125v4.821z" fill="#000000"></path>
</svg>
