<?xml version="1.0" encoding="utf-8"?>
<!-- Generated by IcoMoon.io -->
<!DOCTYPE svg PUBLIC "-//W3C//DTD SVG 1.1//EN" "http://www.w3.org/Graphics/SVG/1.1/DTD/svg11.dtd">
<svg version="1.1" xmlns="http://www.w3.org/2000/svg" xmlns:xlink="http://www.w3.org/1999/xlink" width="25" height="32" viewBox="0 0 25 32">
<g id="icomoon-ignore">
	<line stroke-width="1" x1="" y1="" x2="" y2="" stroke="#449FDB" opacity=""></line>
</g>
	<path d="M0.063 10.643q-0.152-0.446 0.063-0.875 0.089-0.179 0.259-0.464t0.67-0.955 1.080-1.25 1.518-1.196 1.938-0.938q-0.446-0.75-0.446-1.536 0-1.179 0.839-2.018t2.018-0.839 2.018 0.839 0.839 2.018q0 0.589-0.25 1.143h5.393q0-0.196 0.125-0.357t0.321-0.196l8-1.714q0.054-0.018 0.125-0.018 0.214 0 0.357 0.125 0.214 0.161 0.214 0.446v5.714q0 0.286-0.214 0.446-0.143 0.125-0.357 0.125-0.071 0-0.125-0.018l-8-1.714q-0.196-0.036-0.321-0.196t-0.125-0.357h-4.571v1.821q1.982 0.411 3.277 1.982t1.295 3.625v14.286q0 0.464-0.339 0.804t-0.804 0.339h-9.143q-0.464 0-0.804-0.339t-0.339-0.804v-14.286q0-1.893 1.116-3.402t2.884-2.045v-1.982h-0.571q-1.054 0-2.054 0.42t-1.634 0.946-1.179 1.188-0.723 0.955-0.25 0.438q-0.304 0.625-1.018 0.625-0.286 0-0.518-0.125-0.411-0.214-0.563-0.661zM6.857 3.429q0 0.464 0.339 0.804t0.804 0.339 0.804-0.339 0.339-0.804-0.339-0.804-0.804-0.339-0.804 0.339-0.339 0.804z" fill="#000000"></path>
</svg>
