<?xml version="1.0" encoding="utf-8"?>
<!-- Generator: Adobe Illustrator 15.1.0, SVG Export Plug-In . SVG Version: 6.00 Build 0)  -->
<!DOCTYPE svg PUBLIC "-//W3C//DTD SVG 1.1//EN" "http://www.w3.org/Graphics/SVG/1.1/DTD/svg11.dtd">
<svg version="1.1" id="Layer_1" xmlns="http://www.w3.org/2000/svg" xmlns:xlink="http://www.w3.org/1999/xlink" x="0px" y="0px"
	 width="37px" height="32px" viewBox="0 0 37 32" enable-background="new 0 0 37 32" xml:space="preserve">
<g id="icomoon-ignore">
	<line fill="none" stroke="#449FDB" x1="0" y1="0" x2="0" y2="0"/>
</g>
<polygon points="36.57,27.43 36.57,29.715 0,29.715 0,2.286 2.286,2.286 2.286,27.43 36.572,27.43 "/>
<path d="M34.285,23.143c0,0.168-0.055,0.306-0.161,0.412c-0.106,0.107-0.244,0.16-0.411,0.16h-7.768
	c-0.25,0-0.426-0.115-0.527-0.348c-0.102-0.233-0.057-0.443,0.135-0.635l2.16-2.16l-8.285-8.286l-4.162,4.161
	c-0.12,0.119-0.256,0.179-0.411,0.179s-0.292-0.06-0.411-0.179L3.998,6.001l3.429-3.429l7.429,7.429l4.162-4.161
	c0.119-0.119,0.256-0.179,0.41-0.179s0.293,0.06,0.411,0.179l11.304,11.305l2.162-2.162c0.189-0.188,0.401-0.233,0.633-0.133
	c0.232,0.102,0.35,0.276,0.35,0.526v7.769L34.285,23.143z"/>
</svg>
