<?xml version="1.0" encoding="utf-8"?>
<!-- Generated by IcoMoon.io -->
<!DOCTYPE svg PUBLIC "-//W3C//DTD SVG 1.1//EN" "http://www.w3.org/Graphics/SVG/1.1/DTD/svg11.dtd">
<svg version="1.1" xmlns="http://www.w3.org/2000/svg" xmlns:xlink="http://www.w3.org/1999/xlink" width="30" height="32" viewBox="0 0 30 32">
<g id="icomoon-ignore">
	<line stroke-width="1" x1="" y1="" x2="" y2="" stroke="#449FDB" opacity=""></line>
</g>
	<path d="M0.571 17.143q0-0.464 0.339-0.804t0.804-0.339h4v-5.25l-3.089-3.089q-0.339-0.339-0.339-0.804t0.339-0.804 0.804-0.339 0.804 0.339l3.089 3.089h15.071l3.089-3.089q0.339-0.339 0.804-0.339t0.804 0.339 0.339 0.804-0.339 0.804l-3.089 3.089v5.25h4q0.464 0 0.804 0.339t0.339 0.804-0.339 0.804-0.804 0.339h-4q0 3.054-1.196 5.179l3.714 3.732q0.339 0.339 0.339 0.804t-0.339 0.804q-0.321 0.339-0.804 0.339t-0.804-0.339l-3.536-3.518q-0.089 0.089-0.268 0.232t-0.75 0.509-1.161 0.652-1.464 0.518-1.732 0.232v-16h-2.286v16q-0.911 0-1.813-0.241t-1.554-0.589-1.179-0.696-0.777-0.58l-0.268-0.25-3.268 3.696q-0.357 0.375-0.857 0.375-0.429 0-0.768-0.286-0.339-0.321-0.366-0.795t0.277-0.83l3.607-4.054q-1.036-2.036-1.036-4.893h-4q-0.464 0-0.804-0.339t-0.339-0.804zM9.143 6.857q0-2.375 1.67-4.045t4.045-1.67 4.045 1.67 1.67 4.045h-11.429z" fill="#000000"></path>
</svg>
