<?xml version="1.0" encoding="utf-8"?>
<!-- Generated by IcoMoon.io -->
<!DOCTYPE svg PUBLIC "-//W3C//DTD SVG 1.1//EN" "http://www.w3.org/Graphics/SVG/1.1/DTD/svg11.dtd">
<svg version="1.1" xmlns="http://www.w3.org/2000/svg" xmlns:xlink="http://www.w3.org/1999/xlink" width="37" height="32" viewBox="0 0 37 32">
<g id="icomoon-ignore">
	<line stroke-width="1" x1="" y1="" x2="" y2="" stroke="#449FDB" opacity=""></line>
</g>
	<path d="M0 29.714q0-0.464 0.366-0.804t0.866-0.339h31.821q0.5 0 0.866 0.339t0.366 0.804v2.286h-34.286v-2.286zM0 9.143v-2.286l17.143-6.857 17.143 6.857v2.286h-2.286q0 0.464-0.366 0.804t-0.866 0.339h-27.25q-0.5 0-0.866-0.339t-0.366-0.804h-2.286zM2.286 27.429v-1.143q0-0.464 0.366-0.804t0.866-0.339h1.054v-13.714h4.571v13.714h2.286v-13.714h4.571v13.714h2.286v-13.714h4.571v13.714h2.286v-13.714h4.571v13.714h1.054q0.5 0 0.866 0.339t0.366 0.804v1.143h-29.714z" fill="#000000"></path>
</svg>
