<?xml version="1.0" encoding="utf-8"?>
<!-- Generated by IcoMoon.io -->
<!DOCTYPE svg PUBLIC "-//W3C//DTD SVG 1.1//EN" "http://www.w3.org/Graphics/SVG/1.1/DTD/svg11.dtd">
<svg version="1.1" xmlns="http://www.w3.org/2000/svg" xmlns:xlink="http://www.w3.org/1999/xlink" width="30" height="32" viewBox="0 0 30 32">
<g id="icomoon-ignore">
	<line stroke-width="1" x1="" y1="" x2="" y2="" stroke="#449FDB" opacity=""></line>
</g>
	<path d="M0 29.714v-22.857q0-0.929 0.679-1.607t1.607-0.679h2.286v-1.714q0-1.179 0.839-2.018t2.018-0.839h1.143q1.179 0 2.018 0.839t0.839 2.018v1.714h6.857v-1.714q0-1.179 0.839-2.018t2.018-0.839h1.143q1.179 0 2.018 0.839t0.839 2.018v1.714h2.286q0.929 0 1.607 0.679t0.679 1.607v22.857q0 0.929-0.679 1.607t-1.607 0.679h-25.143q-0.929 0-1.607-0.679t-0.679-1.607zM2.286 29.714h25.143v-18.286h-25.143v18.286zM6.857 8q0 0.25 0.161 0.411t0.411 0.161h1.143q0.25 0 0.411-0.161t0.161-0.411v-5.143q0-0.25-0.161-0.411t-0.411-0.161h-1.143q-0.25 0-0.411 0.161t-0.161 0.411v5.143zM20.571 8q0 0.25 0.161 0.411t0.411 0.161h1.143q0.25 0 0.411-0.161t0.161-0.411v-5.143q0-0.25-0.161-0.411t-0.411-0.161h-1.143q-0.25 0-0.411 0.161t-0.161 0.411v5.143z" fill="#000000"></path>
</svg>
