<?xml version="1.0" encoding="utf-8"?>
<!-- Generated by IcoMoon.io -->
<!DOCTYPE svg PUBLIC "-//W3C//DTD SVG 1.1//EN" "http://www.w3.org/Graphics/SVG/1.1/DTD/svg11.dtd">
<svg version="1.1" xmlns="http://www.w3.org/2000/svg" xmlns:xlink="http://www.w3.org/1999/xlink" width="32" height="32" viewBox="0 0 32 32">
<g id="icomoon-ignore">
	<line stroke-width="1" x1="" y1="" x2="" y2="" stroke="#449FDB" opacity=""></line>
</g>
	<path d="M0 13.714q0-2.482 1.679-4.589t4.58-3.33 6.312-1.223 6.313 1.223 4.58 3.33 1.679 4.589-1.679 4.589-4.58 3.33-6.313 1.223q-1.536 0-3.143-0.286-2.214 1.571-4.964 2.286-0.643 0.161-1.536 0.286h-0.054q-0.196 0-0.366-0.143t-0.205-0.375q-0.018-0.054-0.018-0.116t0.009-0.116 0.036-0.107l0.045-0.089t0.063-0.098 0.071-0.089 0.080-0.089 0.071-0.080q0.089-0.107 0.411-0.446t0.464-0.527 0.402-0.518 0.446-0.688 0.366-0.786q-2.214-1.286-3.482-3.161t-1.268-4zM11 25.071q1.036 0.071 1.571 0.071 2.875 0 5.518-0.804t4.714-2.304q2.232-1.643 3.429-3.786t1.196-4.536q0-1.375-0.411-2.714 2.304 1.268 3.643 3.179t1.339 4.107q0 2.143-1.268 4.009t-3.482 3.152q0.179 0.429 0.366 0.786t0.446 0.688 0.402 0.518 0.464 0.527 0.411 0.446q0.018 0.018 0.071 0.080t0.080 0.089 0.071 0.089 0.063 0.098l0.045 0.089t0.036 0.107 0.009 0.116-0.018 0.116q-0.054 0.25-0.232 0.393t-0.393 0.125q-0.893-0.125-1.536-0.286-2.75-0.714-4.964-2.286-1.607 0.286-3.143 0.286-4.839 0-8.429-2.357z" fill="#000000"></path>
</svg>
