<?xml version="1.0" encoding="utf-8"?>
<!-- Generated by IcoMoon.io -->
<!DOCTYPE svg PUBLIC "-//W3C//DTD SVG 1.1//EN" "http://www.w3.org/Graphics/SVG/1.1/DTD/svg11.dtd">
<svg version="1.1" xmlns="http://www.w3.org/2000/svg" xmlns:xlink="http://www.w3.org/1999/xlink" width="32" height="32" viewBox="0 0 32 32">
<g id="icomoon-ignore">
	<line stroke-width="1" x1="" y1="" x2="" y2="" stroke="#449FDB" opacity=""></line>
</g>
	<path d="M13.714 13.714q4.232 0 7.911-0.768t5.804-2.268v3.036q0 1.232-1.839 2.286t-5 1.67-6.875 0.616-6.875-0.616-5-1.67-1.839-2.286v-3.036q2.125 1.5 5.804 2.268t7.911 0.768zM13.714 27.429q4.232 0 7.911-0.768t5.804-2.268v3.036q0 1.232-1.839 2.286t-5 1.67-6.875 0.616-6.875-0.616-5-1.67-1.839-2.286v-3.036q2.125 1.5 5.804 2.268t7.911 0.768zM13.714 20.571q4.232 0 7.911-0.768t5.804-2.268v3.036q0 1.232-1.839 2.286t-5 1.67-6.875 0.616-6.875-0.616-5-1.67-1.839-2.286v-3.036q2.125 1.5 5.804 2.268t7.911 0.768zM13.714 0q3.714 0 6.875 0.616t5 1.67 1.839 2.286v2.286q0 1.232-1.839 2.286t-5 1.67-6.875 0.616-6.875-0.616-5-1.67-1.839-2.286v-2.286q0-1.232 1.839-2.286t5-1.67 6.875-0.616z" fill="#000000"></path>
</svg>
