<?xml version="1.0" encoding="utf-8"?>
<!-- Generated by IcoMoon.io -->
<!DOCTYPE svg PUBLIC "-//W3C//DTD SVG 1.1//EN" "http://www.w3.org/Graphics/SVG/1.1/DTD/svg11.dtd">
<svg version="1.1" xmlns="http://www.w3.org/2000/svg" xmlns:xlink="http://www.w3.org/1999/xlink" width="32" height="32" viewBox="0 0 32 32">
<g id="icomoon-ignore">
	<line stroke-width="1" x1="" y1="" x2="" y2="" stroke="#449FDB" opacity=""></line>
</g>
	<path d="M0 18.357q-0.036-0.714 0.571-1.054l29.714-17.143q0.268-0.161 0.571-0.161 0.357 0 0.643 0.196 0.589 0.429 0.482 1.143l-4.571 27.429q-0.089 0.518-0.571 0.804-0.25 0.143-0.554 0.143-0.196 0-0.429-0.089l-8.089-3.304-4.321 5.268q-0.321 0.411-0.875 0.411-0.232 0-0.393-0.071-0.339-0.125-0.545-0.42t-0.205-0.652v-6.232l15.429-18.911-19.089 16.518-7.054-2.893q-0.661-0.25-0.714-0.982z" fill="#000000"></path>
</svg>
